<?xml version="1.0" encoding="utf-8"?>
<svg width="75" height="24" viewBox="0 0 75 24" fill="none" xmlns="http://www.w3.org/2000/svg">
  <g clip-path="url(#clip0_828_33058)">
    <path d="M11.7 0.0105C8.57743 0.0885 5.6153 1.38 3.42857 3.6165C1.70979 5.376 0.583427 7.587 0.175478 9.9975C0.0989876 10.452 0.0404949 11.004 0.023997 11.4225L0.00749906 11.823L0 12H2.99663L3.00562 11.6655C3.07162 9.1395 4.29246 6.6735 6.28572 5.0385C7.82002 3.78 9.73828 3.0555 11.667 3.0045L12 2.9955V0L11.9295 0.003L11.7 0.0105ZM14.9996 0V5.9955L14.1042 6.0045C13.2029 6.0135 13.0574 6.021 12.6299 6.0765C11.5366 6.2175 10.4267 6.63 9.48781 7.242C8.74091 7.728 8.05399 8.3715 7.52456 9.0825C6.74766 10.122 6.24222 11.3595 6.07724 12.63C6.02175 13.056 6.01425 13.2015 6.00525 14.103L5.99625 15H0.00149981V18H6.00075V24H9.00038V18.0045L9.89726 17.9955C10.7972 17.9865 10.9426 17.979 11.3701 17.9235C12.4634 17.7825 13.5733 17.37 14.5122 16.758C15.2591 16.272 15.946 15.6285 16.4754 14.9175C17.2523 13.878 17.7578 12.6405 17.9228 11.37C17.9783 10.944 17.9858 10.7985 17.9948 9.8955L18.0037 9H23.9985V6H17.9993V0H14.9996ZM14.9951 9.918C14.9906 10.767 14.9876 10.8525 14.9576 11.037C14.9006 11.3955 14.8151 11.712 14.6922 12.03C14.1147 13.518 12.8249 14.604 11.2651 14.916C10.8901 14.991 10.7387 15 9.83577 15H8.99888L9.00487 14.0805C9.00937 13.233 9.01237 13.1475 9.04237 12.963C9.09936 12.6045 9.18485 12.288 9.30784 11.97C9.85527 10.56 11.0491 9.501 12.5069 9.135C12.9869 9.015 13.1294 9.003 14.1417 9.0015L15.0011 9L14.9951 9.918ZM20.9944 12.333C20.9284 14.8605 19.7075 17.3265 17.7143 18.9615C16.18 20.22 14.2617 20.9445 12.3345 20.9955L12 21.0045V24L12.237 23.991C13.6003 23.946 14.6817 23.7555 15.8665 23.3535C19.8695 21.993 22.8856 18.5805 23.742 14.445C23.868 13.8345 23.955 13.1445 23.976 12.5775L23.9925 12.1755L24 12H21.0034L20.9944 12.333Z" style="fill: rgb(178, 55, 249);"/>
    <path d="M31.3501 4.31659V16.2647H38.2455V14.0223H33.6932V4.31659H31.3501ZM43.0488 7.50609C41.8355 7.5931 40.9083 8.01313 40.12 8.82807C39.7702 9.1912 39.5375 9.52086 39.3317 9.94758C39.0204 10.5935 38.8915 11.1892 38.8915 11.9975C38.8915 12.799 39.0204 13.3998 39.3267 14.0374C39.5309 14.4624 39.7668 14.7988 40.0999 15.1468C40.8313 15.9049 41.7032 16.3182 42.8647 16.4588C43.2028 16.5006 43.9041 16.5006 44.2288 16.4588C45.5342 16.2931 46.4798 15.7526 47.2162 14.7486L47.2664 14.6799L46.3878 14.1746L45.5108 13.6675L45.3635 13.8232C45.0421 14.1612 44.6739 14.362 44.1919 14.4591C44.053 14.4875 43.9309 14.4975 43.6647 14.5042C43.2798 14.5126 43.079 14.4959 42.7811 14.4289C41.9894 14.2549 41.4639 13.7897 41.2179 13.045L41.1744 12.9078C41.1744 12.9045 42.6237 12.9011 44.3944 12.9011H47.6129L47.6229 12.8292C47.6999 12.3004 47.7133 11.7984 47.6614 11.38C47.5275 10.2806 47.094 9.40205 46.3108 8.64232C45.6681 8.01815 44.9183 7.65837 44.0112 7.53788C43.817 7.51111 43.2363 7.4927 43.0488 7.50609ZM43.7869 9.49743C44.3442 9.59114 44.8882 9.92917 45.171 10.3576C45.3049 10.56 45.4572 10.9265 45.4974 11.139L45.5091 11.1943H41.1409L41.1509 11.1474C41.1794 11.0202 41.2815 10.7458 41.3468 10.6153C41.6514 10.0112 42.2237 9.6062 42.9233 9.49743C43.1359 9.46396 43.5911 9.46396 43.7869 9.49743ZM48.0229 7.78387C48.043 7.81399 48.7108 8.74942 49.5074 9.86391L50.9551 11.9088C50.9568 11.9188 50.2639 12.8944 49.417 14.0742L47.8639 16.2412C47.8522 16.2613 48.053 16.2647 49.1108 16.2647L50.371 16.263L51.2999 14.9678L52.2438 13.6759C52.2522 13.6793 52.6706 14.2599 53.1727 14.9678L54.0882 16.2563L55.3468 16.2613L56.6053 16.2563C56.6053 16.2529 55.9041 15.269 55.0488 14.0725L53.4924 11.8954L54.9702 9.83378L56.4614 7.7504C56.4714 7.73534 56.2187 7.73032 55.2212 7.732H53.9693L53.1091 8.93684L52.2388 10.14C52.2338 10.14 51.8405 9.59784 51.3668 8.93517L50.5049 7.73032H47.9844L48.0229 7.78387ZM56.9685 7.75375C56.9752 7.76546 57.6463 8.70591 58.4597 9.84382L59.9392 11.9121L58.3928 14.0675L56.8329 16.2429C56.8229 16.2596 57.0773 16.2647 58.0815 16.2647L59.3417 16.263L60.2689 14.9678L61.2095 13.6709C61.2145 13.6709 61.6329 14.2516 62.1367 14.9611L63.0723 16.258C63.0823 16.2613 63.6513 16.263 64.3342 16.2613L65.5794 16.2563L64.0196 14.0758L62.4614 11.8954L62.5233 11.8084L65.4321 7.7504C65.4421 7.73534 65.1894 7.73032 64.1919 7.73032L62.9401 7.732L62.0781 8.93517L61.2078 10.14C61.2028 10.14 60.8112 9.59784 60.3375 8.93517L59.4756 7.73032H58.2154C57.161 7.73032 56.9568 7.73367 56.9685 7.75375ZM65.7652 7.75877C65.7685 7.7755 66.5467 9.61457 67.4924 11.8469L69.2279 15.9567C69.243 16.0003 69.2329 16.0354 69.166 16.1994C69.0773 16.4169 68.9886 16.5876 68.8698 16.7633C68.4882 17.3306 67.9861 17.5984 67.238 17.6318L67.0154 17.6419V19.6834L67.397 19.6734C67.8204 19.6617 68.0949 19.6282 68.4229 19.5445C69.4673 19.2801 70.3041 18.6007 70.9317 17.5113C71.0656 17.2804 71.2731 16.8503 71.3718 16.5993C71.4672 16.3617 74.597 7.76714 74.597 7.74538C74.597 7.73702 74.1267 7.732 73.4321 7.73367L72.2656 7.73869L71.32 10.6035L70.361 13.4567C70.3543 13.45 69.8505 12.1615 69.2447 10.5918L68.1401 7.73869L66.9484 7.73367C65.8187 7.73032 65.7568 7.732 65.7652 7.75877Z" style="fill: rgb(178, 55, 249);"/>
  </g>
  <defs>
    <clipPath id="clip0_828_33058">
      <rect width="74.5969" height="24" fill="white"/>
    </clipPath>
  </defs>
</svg>