<?xml version="1.0" encoding="utf-8"?>
<svg xmlns="http://www.w3.org/2000/svg" width="100%" height="100%" viewBox="0 0 4780 1600" fill-rule="nonzero" stroke-linejoin="round" stroke-miterlimit="2">
  <path d="M780 .7C571.8 5.9 374.3 92 228.5 241.1 113.9 358.4 38.8 505.8 11.6 666.5c-5.1 30.3-9 67.1-10.1 95L.4 788.2-.1 800h199.8l.6-22.3c4.4-168.4 85.8-332.8 218.7-441.8C521.3 252 649.2 203.7 777.8 200.3l22.2-.6V0l-4.7.2-15.3.5zm220-.7v399.7l-59.7.6c-60.1.6-69.8 1.1-98.3 4.8-72.9 9.4-146.9 36.9-209.5 77.7-49.8 32.4-95.6 75.3-130.9 122.7-51.8 69.3-85.5 151.8-96.5 236.5-3.7 28.4-4.2 38.1-4.8 98.2l-.6 59.8H0v200h400v400h200v-399.7l59.8-.6c60-.6 69.7-1.1 98.2-4.8 72.9-9.4 146.9-36.9 209.5-77.7 49.8-32.4 95.6-75.3 130.9-122.7 51.8-69.3 85.5-151.8 96.5-236.5 3.7-28.4 4.2-38.1 4.8-98.3l.6-59.7H1600V400h-400V0h-200zm-.3 661.2c-.3 56.6-.5 62.3-2.5 74.6-3.8 23.9-9.5 45-17.7 66.2C941 901.2 855 973.6 751 994.4c-25 5-35.1 5.6-95.3 5.6h-55.8l.4-61.3c.3-56.5.5-62.2 2.5-74.5 3.8-23.9 9.5-45 17.7-66.2 36.5-94 116.1-164.6 213.3-189 32-8 41.5-8.8 109-8.9l57.3-.1-.4 61.2zm400 161c-4.4 168.5-85.8 332.9-218.7 441.9-102.3 83.9-230.2 132.2-358.7 135.6l-22.3.6V1600l15.8-.6c90.9-3 163-15.7 242-42.5 266.9-90.7 468-318.2 525.1-593.9 8.4-40.7 14.2-86.7 15.6-124.5l1.1-26.8.5-11.7h-199.8l-.6 22.2z" style="fill: rgb(211, 136, 255);"/>
  <path d="M2187 366v714h412V946h-272V366h-140zm699 190.6c-72.5 5.2-127.9 30.3-175 79-20.9 21.7-34.8 41.4-47.1 66.9-18.6 38.6-26.3 74.2-26.3 122.5 0 47.9 7.7 83.8 26 121.9 12.2 25.4 26.3 45.5 46.2 66.3 43.7 45.3 95.8 70 165.2 78.4 20.2 2.5 62.1 2.5 81.5 0 78-9.9 134.5-42.2 178.5-102.2l3-4.1-52.5-30.2-52.4-30.3-8.8 9.3c-19.2 20.2-41.2 32.2-70 38-8.3 1.7-15.6 2.3-31.5 2.7-23 .5-35-.5-52.8-4.5-47.3-10.4-78.7-38.2-93.4-82.7l-2.6-8.2c0-.2 86.6-.4 192.4-.4h192.3l.6-4.3c4.6-31.6 5.4-61.6 2.3-86.6-8-65.7-33.9-118.2-80.7-163.6-38.4-37.3-83.2-58.8-137.4-66-11.6-1.6-46.3-2.7-57.5-1.9zm44.1 119c33.3 5.6 65.8 25.8 82.7 51.4 8 12.1 17.1 34 19.5 46.7l.7 3.3h-261l.6-2.8c1.7-7.6 7.8-24 11.7-31.8 18.2-36.1 52.4-60.3 94.2-66.8 12.7-2 39.9-2 51.6 0zm253.1-102.4c1.2 1.8 41.1 57.7 88.7 124.3l86.5 122.2c.1.6-41.3 58.9-91.9 129.4l-92.8 129.5c-.7 1.2 11.3 1.4 74.5 1.4l75.3-.1 55.5-77.4 56.4-77.2c.5.2 25.5 34.9 55.5 77.2l54.7 77 75.2.3 75.2-.3c0-.2-41.9-59-93-130.5l-93-130.1 88.3-123.2 89.1-124.5c.6-.9-14.5-1.2-74.1-1.1h-74.8l-51.4 72-52 71.9c-.3 0-23.8-32.4-52.1-72l-51.5-72h-150.6l2.3 3.2zm534.5-1.8c.4.7 40.5 56.9 89.1 124.9l88.4 123.6-92.4 128.8-93.2 130c-.6 1 14.6 1.3 74.6 1.3l75.3-.1 55.4-77.4 56.2-77.5c.3 0 25.3 34.7 55.4 77.1l55.9 77.5c.6.2 34.6.3 75.4.2l74.4-.3-93.2-130.3-93.1-130.3 3.7-5.2 173.8-242.5c.6-.9-14.5-1.2-74.1-1.2l-74.8.1L4023 642l-52 72c-.3 0-23.7-32.4-52-72l-51.5-72h-75.3c-63 0-75.2.2-74.5 1.4zm525.6.3c.2 1 46.7 110.9 103.2 244.3l103.7 245.6c.9 2.6.3 4.7-3.7 14.5-5.3 13-10.6 23.2-17.7 33.7-22.8 33.9-52.8 49.9-97.5 51.9l-13.3.6v122l22.8-.6c25.3-.7 41.7-2.7 61.3-7.7 62.4-15.8 112.4-56.4 149.9-121.5 8-13.8 20.4-39.5 26.3-54.5 5.7-14.2 192.7-527.8 192.7-529.1 0-.5-28.1-.8-69.6-.7l-69.7.3-56.5 171.2-57.3 170.5c-.4-.4-30.5-77.4-66.7-171.2l-66-170.5-71.2-.3c-67.5-.2-71.2-.1-70.7 1.5z" fill="#3e3e3e"/>
</svg>