<?xml version="1.0" encoding="utf-8"?>
<svg width="24" height="24" viewBox="0 0 24 24" fill="none" xmlns="http://www.w3.org/2000/svg">
  <path d="M11.7 0.0105C8.57743 0.0885 5.6153 1.38 3.42857 3.6165C1.70979 5.376 0.583427 7.587 0.175478 9.9975C0.0989876 10.452 0.0404949 11.004 0.023997 11.4225L0.00749906 11.823L0 12H2.99663L3.00562 11.6655C3.07162 9.1395 4.29246 6.6735 6.28572 5.0385C7.82002 3.78 9.73828 3.0555 11.667 3.0045L12 2.9955V0L11.9295 0.003L11.7 0.0105ZM14.9996 0V5.9955L14.1042 6.0045C13.2029 6.0135 13.0574 6.021 12.6299 6.0765C11.5366 6.2175 10.4267 6.63 9.48781 7.242C8.74091 7.728 8.05399 8.3715 7.52456 9.0825C6.74766 10.122 6.24222 11.3595 6.07724 12.63C6.02175 13.056 6.01425 13.2015 6.00525 14.103L5.99625 15H0.00149981V18H6.00075V24H9.00038V18.0045L9.89726 17.9955C10.7972 17.9865 10.9426 17.979 11.3701 17.9235C12.4634 17.7825 13.5733 17.37 14.5122 16.758C15.2591 16.272 15.946 15.6285 16.4754 14.9175C17.2523 13.878 17.7578 12.6405 17.9228 11.37C17.9783 10.944 17.9858 10.7985 17.9948 9.8955L18.0037 9H23.9985V6H17.9993V0H14.9996ZM14.9951 9.918C14.9906 10.767 14.9876 10.8525 14.9576 11.037C14.9006 11.3955 14.8151 11.712 14.6922 12.03C14.1147 13.518 12.8249 14.604 11.2651 14.916C10.8901 14.991 10.7387 15 9.83577 15H8.99888L9.00487 14.0805C9.00937 13.233 9.01237 13.1475 9.04237 12.963C9.09936 12.6045 9.18485 12.288 9.30784 11.97C9.85527 10.56 11.0491 9.501 12.5069 9.135C12.9869 9.015 13.1294 9.003 14.1417 9.0015L15.0011 9L14.9951 9.918ZM20.9944 12.333C20.9284 14.8605 19.7075 17.3265 17.7143 18.9615C16.18 20.22 14.2617 20.9445 12.3345 20.9955L12 21.0045V24L12.237 23.991C13.6003 23.946 14.6817 23.7555 15.8665 23.3535C19.8695 21.993 22.8856 18.5805 23.742 14.445C23.868 13.8345 23.955 13.1445 23.976 12.5775L23.9925 12.1755L24 12H21.0034L20.9944 12.333Z" style="fill: rgb(211, 136, 255);"/>
</svg>